<svg fill="none" viewBox="0 0 15 15" width="15" xmlns="http://www.w3.org/2000/svg">
    <g stroke="#000">
        <path d="m5.5.5h-4c-.552285 0-1 .447715-1 1v4c0 .55228.447715 1 1 1h4c.55228 0 1-.44772 1-1v-4c0-.552285-.44772-1-1-1z"/>
        <path d="m13.5.5h-4c-.55228 0-1 .447715-1 1v4c0 .55228.44772 1 1 1h4c.5523 0 1-.44772 1-1v-4c0-.552285-.4477-1-1-1z"/>
        <path d="m13.5 8.5h-4c-.55228 0-1 .44772-1 1v4c0 .5523.44772 1 1 1h4c.5523 0 1-.4477 1-1v-4c0-.55228-.4477-1-1-1z"/>
        <path d="m5.5 8.5h-4c-.552285 0-1 .44772-1 1v4c0 .5523.447715 1 1 1h4c.55228 0 1-.4477 1-1v-4c0-.55228-.44772-1-1-1z"/>
    </g>
</svg>